<svg width="726" height="814" viewBox="0 0 726 814" fill="none" xmlns="http://www.w3.org/2000/svg">
<path d="M0 589.376V237.584C0 207.31 17.089 179.63 44.1535 166.065L338.365 18.6017C361.634 6.93898 389.122 7.32538 412.054 19.6375L683.843 165.561C709.803 179.499 726 206.579 726 236.044V590.872C726 621.293 708.747 649.081 681.482 662.573L409.773 797.029C388.086 807.761 362.708 808.101 340.741 797.953L46.45 662.001C18.1317 648.919 0 620.57 0 589.376Z" fill="#323232"/>
<path d="M251 400.386V504.019C251 512.673 262.83 515.165 266.32 507.246L362.525 289.008M251 400.386H425.258M251 400.386C251 400.386 251 336.17 251 318.076C251 299.983 264.941 289.008 279.178 289.008C293.415 289.008 362.525 289.008 362.525 289.008M362.525 289.008C389.341 289.008 427.483 289.008 450.619 289.008C473.754 289.008 479.768 303.839 471.678 317.972C464.856 329.889 391.927 459.501 369.229 499.847C366.229 505.179 370.069 511.763 376.188 511.763C397.878 511.763 439.128 511.763 452.695 511.763C471.418 511.763 479.056 496.339 472.568 484.475C466.079 472.61 362.525 289.008 362.525 289.008Z" stroke="white" stroke-width="20" stroke-linecap="round" stroke-linejoin="round"/>
<path d="M464 364L412 456" stroke="#323232" stroke-width="12"/>
<path d="M356 267L280 436" stroke="#323232" stroke-width="12"/>
<path d="M397 381L408.5 400M408.5 400L388 435.5M408.5 400L434 354" stroke="#323232" stroke-width="10"/>
<path d="M366 264L418 352" stroke="#323232" stroke-width="12"/>
</svg>
